/* XPM */
static char * exit_xpm[] = {
"64 64 348 2",
"  	c #FFFFFF",
". 	c #FEFFFF",
"+ 	c #FCFDFC",
"@ 	c #FEFFFE",
"# 	c #DDDEDE",
"$ 	c #747677",
"% 	c #8F9192",
"& 	c #B4B6B8",
"* 	c #D0D1D4",
"= 	c #E8E9EC",
"- 	c #F4F5F5",
"; 	c #FDFDFE",
"> 	c #FEFEFF",
", 	c #BEBFBF",
"' 	c #242633",
") 	c #282C36",
"! 	c #1F242F",
"~ 	c #212731",
"{ 	c #2C333B",
"] 	c #4A4E53",
"^ 	c #727578",
"/ 	c #979A9D",
"( 	c #BABDC0",
"_ 	c #D7D8DB",
": 	c #ECEEEF",
"< 	c #F8F8FA",
"[ 	c #FFFFFE",
"} 	c #BEC0C1",
"| 	c #212431",
"1 	c #BCBFC1",
"2 	c #D2D5D5",
"3 	c #BABBBD",
"4 	c #999A9C",
"5 	c #72767B",
"6 	c #4A4F55",
"7 	c #282E35",
"8 	c #1F242C",
"9 	c #1D232A",
"0 	c #2E323A",
"a 	c #565A5F",
"b 	c #7C7E82",
"c 	c #A4A6A9",
"d 	c #BEC2C5",
"e 	c #DBDBDC",
"f 	c #EDEEEE",
"g 	c #FBFBFB",
"h 	c #FCFEFE",
"i 	c #D6D6D9",
"j 	c #B4B4B7",
"k 	c #B4B5B6",
"l 	c #B3B5B5",
"m 	c #B3B6B6",
"n 	c #B4B5B7",
"o 	c #B5B5B6",
"p 	c #CBCCCE",
"q 	c #202431",
"r 	c #CDD1D0",
"s 	c #FEFEFE",
"t 	c #FDFFFF",
"u 	c #F4F5F6",
"v 	c #E6E8EA",
"w 	c #CACED0",
"x 	c #B0B3B6",
"y 	c #8B8E90",
"z 	c #676A6D",
"A 	c #3E4248",
"B 	c #262C33",
"C 	c #1E252E",
"D 	c #21282F",
"E 	c #3B4045",
"F 	c #64676B",
"G 	c #888B8F",
"H 	c #B2B4B6",
"I 	c #F2F4F5",
"J 	c #FBFDFE",
"K 	c #6A6F76",
"L 	c #202732",
"M 	c #232B34",
"N 	c #232A33",
"O 	c #232A34",
"P 	c #242A36",
"Q 	c #242A38",
"R 	c #242A37",
"S 	c #252A36",
"T 	c #252936",
"U 	c #272936",
"V 	c #5C5F64",
"W 	c #F7FAFA",
"X 	c #BCC0C1",
"Y 	c #CFD2D2",
"Z 	c #FCFCFC",
"` 	c #F3F3F3",
" .	c #E1E2E3",
"..	c #CBCDCE",
"+.	c #ABAEB1",
"@.	c #83878A",
"#.	c #333741",
"$.	c #212532",
"%.	c #C8CBCB",
"&.	c #FBFCFD",
"*.	c #676B6E",
"=.	c #4B5155",
"-.	c #D7DADB",
";.	c #D9DCDC",
">.	c #DADCDC",
",.	c #DADCDD",
"'.	c #DADCDE",
").	c #E8EAEC",
"!.	c #BDC0C1",
"~.	c #1F2330",
"{.	c #CFD1D0",
"].	c #FEFEFD",
"^.	c #FDFFFE",
"/.	c #F6F9F9",
"(.	c #BBBEC0",
"_.	c #212631",
":.	c #C7C9CA",
"<.	c #FBFCFC",
"[.	c #676B6F",
"}.	c #565B5F",
"|.	c #FDFDFD",
"1.	c #BEC0C2",
"2.	c #CED0CE",
"3.	c #C5C8C9",
"4.	c #212730",
"5.	c #C7C8C9",
"6.	c #BFC0C1",
"7.	c #1F2730",
"8.	c #BFBFC1",
"9.	c #CFD0CF",
"0.	c #BEBEC0",
"a.	c #1E252F",
"b.	c #CED2D0",
"c.	c #FFFEFF",
"d.	c #FFFFFD",
"e.	c #F6F7F8",
"f.	c #77797D",
"g.	c #A5A6AA",
"h.	c #FAFBFC",
"i.	c #7C8082",
"j.	c #252A31",
"k.	c #B5B7B8",
"l.	c #FEFDFE",
"m.	c #EDEFEF",
"n.	c #5F6366",
"o.	c #30343A",
"p.	c #CCCDCF",
"q.	c #FCFCFD",
"r.	c #787B7E",
"s.	c #64696B",
"t.	c #FCFDFD",
"u.	c #E0E3E4",
"v.	c #4A4D54",
"w.	c #DBDCDE",
"x.	c #FFFEFE",
"y.	c #ECECED",
"z.	c #E8E9E9",
"A.	c #CFD3D6",
"B.	c #353C41",
"C.	c #53585B",
"D.	c #E9EAEA",
"E.	c #F9FBFC",
"F.	c #E7E7E7",
"G.	c #E5E5E5",
"H.	c #E4E6E5",
"I.	c #E4E6E6",
"J.	c #E4E5E7",
"K.	c #E3E5E7",
"L.	c #E3E6E7",
"M.	c #E3E6E5",
"N.	c #E3E5E6",
"O.	c #DFE4E5",
"P.	c #9AA3A6",
"Q.	c #202A2F",
"R.	c #6E7176",
"S.	c #F0F1F2",
"T.	c #CED2CF",
"U.	c #F0F3F3",
"V.	c #676A70",
"W.	c #FFFEFD",
"X.	c #C9C9CB",
"Y.	c #2F343D",
"Z.	c #2A313A",
"`.	c #2C303A",
" +	c #2C303B",
".+	c #2D2F3B",
"++	c #2B303A",
"@+	c #2A303C",
"#+	c #2B303B",
"$+	c #2B313A",
"%+	c #2A3238",
"&+	c #293339",
"*+	c #1E2831",
"=+	c #232832",
"-+	c #A7A8AB",
";+	c #E6E9E9",
">+	c #2D333C",
",+	c #A3A5A8",
"'+	c #E9EBEC",
")+	c #9DA1A3",
"!+	c #999C9F",
"~+	c #9A9C9F",
"{+	c #9B9C9F",
"]+	c #9C9B9F",
"^+	c #9B9B9E",
"/+	c #9A9CA0",
"(+	c #9A9DA0",
"_+	c #9A9EA2",
":+	c #7C8286",
"<+	c #20282F",
"[+	c #35393D",
"}+	c #D1D2D4",
"|+	c #CDD1CF",
"1+	c #E9EBEB",
"2+	c #32383D",
"3+	c #A7A9AA",
"4+	c #EFF3F5",
"5+	c #707577",
"6+	c #282E30",
"7+	c #BDBFC0",
"8+	c #FDFEFE",
"9+	c #CDD1CE",
"0+	c #D0D3D4",
"a+	c #ECEEEE",
"b+	c #FCFEFF",
"c+	c #ABAEB0",
"d+	c #A1A2A4",
"e+	c #FEFDFD",
"f+	c #F9FAFA",
"g+	c #888B8D",
"h+	c #23292F",
"i+	c #A4A8A8",
"j+	c #FAFCFC",
"k+	c #FCFFFE",
"l+	c #FBFDFD",
"m+	c #676C72",
"n+	c #575B61",
"o+	c #FAFBFB",
"p+	c #A0A3A3",
"q+	c #232932",
"r+	c #8E9192",
"s+	c #F9FAF9",
"t+	c #676C70",
"u+	c #565B61",
"v+	c #BCBEBE",
"w+	c #262A30",
"x+	c #74787E",
"y+	c #F2F5F6",
"z+	c #BEBFC0",
"A+	c #676B70",
"B+	c #565B60",
"C+	c #F3F3F5",
"D+	c #4A4B50",
"E+	c #5D5F65",
"F+	c #EAECEE",
"G+	c #FCFFFF",
"H+	c #D7D8D9",
"I+	c #E8EAEB",
"J+	c #575B60",
"K+	c #FCFFFD",
"L+	c #BEBEBF",
"M+	c #1D242F",
"N+	c #C6C8CA",
"O+	c #30363C",
"P+	c #76787B",
"Q+	c #767A7D",
"R+	c #777B7E",
"S+	c #A1A3A4",
"T+	c #1D2431",
"U+	c #CDD1D1",
"V+	c #EBECEC",
"W+	c #D7D7D7",
"X+	c #BDBEBE",
"Y+	c #838688",
"Z+	c #989A9D",
"`+	c #43474D",
" @	c #42464B",
".@	c #43474E",
"+@	c #42464D",
"@@	c #42464C",
"#@	c #42464E",
"$@	c #424650",
"%@	c #7B7F81",
"&@	c #F9FCFB",
"*@	c #BCC0C0",
"=@	c #1F2531",
"-@	c #CED2D2",
";@	c #FDFEFF",
">@	c #F7F9FA",
",@	c #EDEFF0",
"'@	c #DADBDD",
")@	c #C5C7C9",
"!@	c #A8AAAC",
"~@	c #848689",
"{@	c #51555A",
"]@	c #2F353D",
"^@	c #212732",
"/@	c #282E33",
"(@	c #4A4D51",
"_@	c #DCDFDF",
":@	c #F8FBFA",
"<@	c #F8FCFA",
"[@	c #F9FBFB",
"}@	c #FAFDFD",
"|@	c #BCC1C1",
"1@	c #1F2533",
"2@	c #CED2D3",
"3@	c #F2F3F2",
"4@	c #E2E3E2",
"5@	c #CDCFD1",
"6@	c #ADB0B4",
"7@	c #8D9094",
"8@	c #5E6266",
"9@	c #363B41",
"0@	c #232A32",
"a@	c #1D252F",
"b@	c #252D35",
"c@	c #3D4349",
"d@	c #63676D",
"e@	c #B0B2B5",
"f@	c #CED0D3",
"g@	c #F8F9FA",
"h@	c #202735",
"i@	c #72777A",
"j@	c #696E72",
"k@	c #3F454B",
"l@	c #2A3038",
"m@	c #242A32",
"n@	c #373C42",
"o@	c #5C6065",
"p@	c #85888D",
"q@	c #AAADAF",
"r@	c #C6C9CA",
"s@	c #E0E2E3",
"t@	c #F1F3F4",
"u@	c #C4C5C6",
"v@	c #21242E",
"w@	c #2F323B",
"x@	c #54565D",
"y@	c #7A7C83",
"z@	c #A3A5AB",
"A@	c #C0C3C4",
"B@	c #EAEDEE",
"C@	c #F8FAFB",
"D@	c #FBFCFE",
"E@	c #F8F8F9",
"F@	c #DADBDA",
"G@	c #E9E9EA",
"                                                                                                                                ",
"                                                                                                                                ",
"                                                                                                                                ",
"                                                            . + . @                                                             ",
"                                                            # $ % & * = - ; . . >                                               ",
"                                                            , ' ) ! ~ { ] ^ / ( _ : <     [                                     ",
"                                                            } | 1 2 3 4 5 6 7 8 9 0 a b c d e f g h .                           ",
"                        . i j k l l m k k k n k k k k o p h 1 q r s     t u v w x y z A B C D E F G H I .                       ",
"                      . J K L M N N O P P P Q R S T T U V W X q Y           . t     Z `  ...+.@.V #.$.%..                       ",
"                      . &.*.=.-.;.;.>.,.,.,.'.,.,.,.,.,.).. !.~.{.[           .         ].].^.t /.(._.:..                       ",
"                      s <.[.}.|.                            1.! 2.[                             . 3.4.5.s                       ",
"                      s <.[.}.|.                            6.! 2.[                             . 3.7.5.s                       ",
"                      s <.[.}.|.                            6.! 2.[                             . 3.7.5.s                       ",
"                      s <.[.}.|.                            6.! 2.[                             . 3.7.5.s                       ",
"                      s <.[.}.|.                            8.! 9.@                             . 3.7.5.s                       ",
"                      s <.[.}.|.                            0.! {.@ t t                         . 3.7.5.s                       ",
"                      s <.[.}.|.                            0.! {.@ t t                         . 3.7.5.s                       ",
"                      s <.[.}.|.                            0.a.b.@                             . 3.7.5.s                       ",
"                      s <.[.}.|.                            0.a.b.@                             . 3.7.5.s                       ",
"                      s <.[.}.|.                            0.a.b.@                             . 3.7.5.s                       ",
"                      s <.[.}.|.                            0.a.b.@                             . 3.7.5.s                       ",
"                      s <.[.}.|.                            0.a.b.@                             . 3.7.5.s                       ",
"                      s <.[.}.|.  c.c.[ d.                  0.a.b.@                             . 3.7.5.s                       ",
"                      s <.[.}.|.    c.; s                   0.a.b.@                             . 3.7.5.s                       ",
"                      s <.[.}.|.  . e.f.g.h.[               0.a.b.@                             . 3.7.5.s                       ",
"                      s <.[.}.|.    W i.j.k.l.              0.a.b.@                             . 3.7.5.s                       ",
"                      s <.[.}.|.  [ ].m.n.o.p.              0.a.b.@                             . 3.7.5.s                       ",
"                        q.r.s.t.  [ [   u.v.A w.d.x.        0.a.b.@ [                           . 3.7.5.s                       ",
"                          y.z.@         . A.B.C.D.x.        0.a.b.^.E.t                         . 3.7.5.s                       ",
"            Z F.G.H.I.I.J.K.L.M.H.I.J.J.N.O.P.Q.R.S.        0.a.T.U.V.} .                       . 3.7.5.s                       ",
"          W.X.Y.Z.`.`. +.+++@+#+`.`. + +$+%+&+*+=+-+        8.a.T.;+>+,+c.c.                    . 3.7.5.s                       ",
"          @ '+)+!+~+~+{+]+^+/+~+~+~+~+~+(+_+:+<+[+}+s       6.a.|+1+2+3+c.c.                    . 3.7.5.s                       ",
"          . . @ @ [ [ [ [ |.s d.[ [ [   t 4+5+6+7+t.8+.     6.a.9++ 0+a+                        . 3.7.5.s                       ",
"                        b+c+d+e+        f+g+h+i+j+8+k+t     6.a.9+@ c.    . .                   . 3.7.5.s                       ",
"                      . l+m+n+l+.   [ o+p+q+r+s+s s k+t     6.a.9+s c.  . t .                   . 3.7.5.s                       ",
"                        <.t+u+t.  [ ].v+w+x+y+@     .       z+a.T.@                             . 3.7.5.s                       ",
"                      s <.A+B+|.    C+D+E+F+G+.             0.a.b.@                             . 3.7.5.s                       ",
"                      s <.A+B+|.  [ ].H+I+. .               0.a.b.@                             . 3.7.5.s                       ",
"                      s <.A+B+|.      . .           t t     0.a.b.@                             . 3.7.5.s                       ",
"                      s <.A+B+|.                    t t     0.a.b.@                             . 3.7.5.s                       ",
"                      s <.A+B+|.                            0.a.b.@                             . 3.7.5.s                       ",
"                      s <.A+B+|.                            0.a.b.@                             . 3.7.5.s                       ",
"                      s <.A+B+|.                            0.a.b.@                             . 3.7.5.s                       ",
"                      s <.A+B+|.                            0.a.b.@                             . 3.7.5.s                       ",
"                      s <.A+B+|.                            0.a.b.@                             . 3.7.5.s                       ",
"                      s <.A+B+|.                            0.a.b.@                             . 3.7.5.s                       ",
"                      s <.A+B+|.                            0.a.b.@                             . 3.7.5.s                       ",
"                      s <.A+B+|.                            0.a.b.@                             . 3.7.5.s                       ",
"                      s <.A+B+|.                            0.a.b.@                             . 3.7.5.s                       ",
"                      s <.A+B+|.                            0.a.b.@                             . 3.7.5.s                       ",
"                      s <.A+B+|.      > > > > > > > > >     0.a.b.@                             . 3.7.5.s                       ",
"                      s <.A+J+t.^.^.K+K+K+K+K+K+K+K+K+^.. s L+M+|+@                             . N+7.5.s                       ",
"                      s <.A+O+P+Q+Q+R+R+R+R+R+R+R+R+R+f.S+j+7+T+U+.                     s o+V+W+X+Y+7.5.s                       ",
"                        h Z+`+ @.@.@+@@@@@@@@@@@#@#@#@$@%@&@*@=@-@@ @ @     ;@>@,@'@)@!@~@{@]@^@4./@(@_@.                       ",
"                          t.E.:@<@<@[@[@[@[@[@[@[@E.E.E.}@G+|@1@2@[@3@4@5@6@7@8@9@0@a@b@c@d@7@e@f@K.g@s                         ",
"                          c.c.s ].].[ [ [ [ [ [       . . ^.!.h@i@j@k@l@<+m@n@o@p@q@r@s@t@h.s   > c.x.[                         ",
"                                                          s u@v@w@x@y@z@A@'.B@C@D@.                                             ",
"                                                            E@F@G@e.s   . .   [ [ [                                             ",
"                                                              ].[ [             [ d.[                                           ",
"                                                                                                                                ",
"                                                                                                                                ",
"                                                                                                                                ",
"                                                                                                                                ",
"                                                                                                                                "};
