/* XPM */
static char * exit_xpm[] = {
"64 64 276 2",
"  	c #FFFFFF",
". 	c #E8E8E8",
"+ 	c #FBFBFB",
"@ 	c #ECECEC",
"# 	c #E5E4E5",
"$ 	c #AAA9A9",
"% 	c #6C6A6B",
"& 	c #27201F",
"* 	c #231815",
"= 	c #271D1C",
"- 	c #6C6B6C",
"; 	c #A9A9A9",
"> 	c #DCDCDC",
", 	c #FAFAFA",
"' 	c #E7E7E7",
") 	c #FEFEFE",
"! 	c #EAEAEA",
"~ 	c #ACACAC",
"{ 	c #261C1A",
"] 	c #271D1B",
"^ 	c #AAA9AA",
"/ 	c #F8F8F8",
"( 	c #868484",
"_ 	c #898788",
": 	c #E5E5E5",
"< 	c #241816",
"[ 	c #39444C",
"} 	c #261E1D",
"| 	c #221814",
"1 	c #411F2E",
"2 	c #341C24",
"3 	c #A9A8A8",
"4 	c #31383C",
"5 	c #7EAAC0",
"6 	c #9BD4EF",
"7 	c #9ED8F5",
"8 	c #9DD6F2",
"9 	c #83B3CA",
"0 	c #3E4D56",
"a 	c #737171",
"b 	c #D7D7D6",
"c 	c #221613",
"d 	c #7D335D",
"e 	c #BE4A8F",
"f 	c #C84E96",
"g 	c #C94E97",
"h 	c #B04583",
"i 	c #582640",
"j 	c #A8A8A8",
"k 	c #6B6A6B",
"l 	c #2A292C",
"m 	c #8EC2DB",
"n 	c #96CEE8",
"o 	c #38444A",
"p 	c #828180",
"q 	c #F6F6F6",
"r 	c #221513",
"s 	c #813460",
"t 	c #C04C90",
"u 	c #502339",
"v 	c #6A696A",
"w 	c #6C92A4",
"x 	c #7CA8BE",
"y 	c #817F7F",
"z 	c #F2F2F2",
"A 	c #C14C91",
"B 	c #9E3E75",
"C 	c #86B6CD",
"D 	c #93C8E2",
"E 	c #602946",
"F 	c #B74789",
"G 	c #8ABBD3",
"H 	c #95CBE6",
"I 	c #592640",
"J 	c #B64788",
"K 	c #76A0B5",
"L 	c #85B4CB",
"M 	c #807F7E",
"N 	c #F1F1F1",
"O 	c #B9488B",
"P 	c #933A6D",
"Q 	c #39454C",
"R 	c #98CFE9",
"S 	c #9CD5F1",
"T 	c #4C626C",
"U 	c #848282",
"V 	c #6C2C4F",
"W 	c #C64D94",
"X 	c #B74889",
"Y 	c #3B1D29",
"Z 	c #495D67",
"` 	c #92C6E0",
" .	c #95CBE5",
"..	c #587482",
"+.	c #7F7D7D",
"@.	c #622847",
"#.	c #A9427E",
"$.	c #BA4A8C",
"%.	c #B8498A",
"&.	c #973D71",
"*.	c #3C1D29",
"=.	c #231714",
"-.	c #4E6672",
";.	c #638393",
">.	c #546F7C",
",.	c #251D1C",
"'.	c #848382",
").	c #2F3338",
"!.	c #54707A",
"~.	c #547079",
"{.	c #546F79",
"].	c #536F79",
"^.	c #4F6875",
"/.	c #33393F",
"(.	c #7D7B7B",
"_.	c #472032",
":.	c #662A4B",
"<.	c #652A4A",
"[.	c #56243E",
"}.	c #3C4950",
"|.	c #97CEE8",
"1.	c #55707C",
"2.	c #2F1A1F",
"3.	c #9F3F77",
"4.	c #AE4482",
"5.	c #381D27",
"6.	c #6D92A5",
"7.	c #83B2C9",
"8.	c #90396B",
"9.	c #8B3767",
"0.	c #7BA7BC",
"a.	c #8FC4DD",
"b.	c #858484",
"c.	c #B44787",
"d.	c #A23F79",
"e.	c #7EABC2",
"f.	c #91C7DF",
"g.	c #7E7D7D",
"h.	c #A03E77",
"i.	c #93C6E0",
"j.	c #9ED8F4",
"k.	c #91C6DF",
"l.	c #C74E95",
"m.	c #85B0C8",
"n.	c #9ED7F2",
"o.	c #82B2C8",
"p.	c #EDEDED",
"q.	c #51253B",
"r.	c #823661",
"s.	c #B34686",
"t.	c #828181",
"u.	c #261A18",
"v.	c #77345A",
"w.	c #B14584",
"x.	c #807F7F",
"y.	c #763358",
"z.	c #743056",
"A.	c #732F55",
"B.	c #BB498C",
"C.	c #271C1A",
"D.	c #783159",
"E.	c #B8488A",
"F.	c #53253D",
"G.	c #C94E96",
"H.	c #732E55",
"I.	c #A5407B",
"J.	c #9D3E75",
"K.	c #6D2C50",
"L.	c #8E396A",
"M.	c #A03F77",
"N.	c #C54D94",
"O.	c #A6417C",
"P.	c #742F56",
"Q.	c #C14B90",
"R.	c #823561",
"S.	c #B14684",
"T.	c #4A2135",
"U.	c #452132",
"V.	c #C34C92",
"W.	c #672C4C",
"X.	c #B24685",
"Y.	c #843462",
"Z.	c #943A6E",
"`.	c #823460",
" +	c #A3407A",
".+	c #983C71",
"++	c #5D2844",
"@+	c #BF4B90",
"#+	c #271A1A",
"$+	c #AA437F",
"%+	c #BA498C",
"&+	c #973C70",
"*+	c #9F3E77",
"=+	c #C44C93",
"-+	c #BF4B8F",
";+	c #602846",
">+	c #80345F",
",+	c #9DD7F3",
"'+	c #85B5CC",
")+	c #261919",
"!+	c #6A2B4E",
"~+	c #56253F",
"{+	c #762F57",
"]+	c #A13F78",
"^+	c #702E53",
"/+	c #749DB1",
"(+	c #80ADC4",
"_+	c #8DC0D9",
":+	c #91C7E0",
"<+	c #7CA8BD",
"[+	c #9ED9F5",
"}+	c #3D4B53",
"|+	c #8CBED7",
"1+	c #8CBFD7",
"2+	c #465963",
"3+	c #8BBDD7",
"4+	c #92C7E0",
"5+	c #6D93A7",
"6+	c #658798",
"7+	c #79A5B9",
"8+	c #3A444C",
"9+	c #502239",
"0+	c #8A3867",
"a+	c #893666",
"b+	c #442030",
"c+	c #5B2743",
"d+	c #843562",
"e+	c #9B3C73",
"f+	c #AC4380",
"g+	c #251918",
"h+	c #C64D95",
"i+	c #5E2845",
"j+	c #A4417A",
"k+	c #A4417B",
"l+	c #AC4481",
"m+	c #C24C92",
"n+	c #B54787",
"o+	c #853663",
"p+	c #291B1B",
"q+	c #67294B",
"r+	c #8B3667",
"s+	c #88B9D1",
"t+	c #90C5DD",
"u+	c #6B90A2",
"v+	c #86B7CE",
"w+	c #739CB0",
"x+	c #729BAE",
"y+	c #9AD2ED",
"z+	c #3B4950",
"A+	c #251917",
"B+	c #682A4C",
"C+	c #883665",
"D+	c #6B696A",
"E+	c #353D43",
"F+	c #79A4B9",
"G+	c #749CB0",
"H+	c #2C2C2F",
"I+	c #628292",
"J+	c #6F95A8",
"K+	c #44565F",
"L+	c #5B5858",
"M+	c #ACABAB",
"N+	c #A5417B",
"O+	c #2B191C",
"P+	c #993C72",
"Q+	c #4C2236",
"R+	c #452131",
"S+	c #221815",
"T+	c #371D26",
"U+	c #311B21",
"V+	c #261C19",
"W+	c #ACABAC",
"X+	c #878585",
"Y+	c #E9E9E9",
"Z+	c #A9A9AA",
"`+	c #696869",
"  . + @ # $ % & * * * * * * * * * * * * * * * * * * * * * * * * * * * * * * * * * * * * * * * * * * * * * * * * = - ; > , @   ' ",
". ) ! ~ { * * * * * * * * * * * * * * * * * * * * * * * * * * * * * * * * * * * * * * * * * * * * * * * * * * * * * * ] ^ / .   ",
"+ ! ( * * * * * * * * * * * * * * * * * * * * * * * * * * * * * * * * * * * * * * * * * * * * * * * * * * * * * * * * * * _ / @ ",
"@ ~ * * * * * * * * * * * * * * * * * * * * * * * * * * * * * * * * * * * * * * * * * * * * * * * * * * * * * * * * * * * * ^ , ",
": { * * * * * * * * * * * * * < [ } * * * * * * * * * * * * * * * * * * * * * * * * * * | 1 2 * * * * * * * * * * * * * * * { > ",
"3 * * * * * * * * * * * * 4 5 6 7 8 9 0 * * * * * * * * * a b c * * * * * * * * * * * d e f g h i * * * * * * * * * * * * * * j ",
"k * * * * * * * * * * * l m 7 7 7 7 7 n o * * * * * * * * p q r * * * * * * * * * * s f f f f f t u * * * * * * * * * * * * * v ",
"& * * * * * * * * * * * w 7 7 7 7 7 7 7 x * * * * * * * * y z r * * * * * * * * * * A f f f f f f B * * * * * * * * * * * * * ] ",
"* * * * * * * * * * * * C 7 7 7 7 7 7 7 D * * * * * * * * y z r * * * * * * * * * E f f f f f f f F * * * * * * * * * * * * * * ",
"* * * * * * * * * * * * G 7 7 7 7 7 7 7 H * * * * * * * * p q r * * * * * * * * * I f f f f f f f J * * * * * * * * * * * * * * ",
"* * * * * * * * * * * * K 7 7 7 7 7 7 7 L * * * * * * * * M N r * * * * * * * * * * O f f f f f f P * * * * * * * * * * * * * * ",
"* * * * * * * * * * * * Q R 7 7 7 7 7 S T * * * * * * * * U , r * * * * * * * * * * V W f f f f X Y * * * * * * * * * * * * * * ",
"* * * * * * * * * * * * * Z ` 7 7 7  ...* * * * * * * * * +.@ r * * * * * * * * * * * @.#.$.%.&.*.* * * * * * * * * * * * * * * ",
"* * * * * * * * * * * * * * =.-.;.>.,.* * * * * * * * * * '.+ r * * * * * * * * * * * * * * * * * * * * * * * * * * * * * * * * ",
"* * * * * * * * * ).!.!.!.!.!.~.{.].].^.^.^.^./.* * * * * (.. r * * * * * * * * _.:.<.<.<.<.<.<.<.<.[.* * * * * * * * * * * * * ",
"* * * * * * * * }.|.7 7 7 7 7 7 7 7 7 7 7 7 7 S 1.* * * * (   r * * * * * * 2.3.f f f f f f f f f f f 4.5.* * * * * * * * * * * ",
"* * * * * * * * 6.7 7 7 7 7 7 7 7 7 7 7 7 7 7 7 7.* * * * (.. r * * * * * * 8.f f f f f f f f f f f f f 9.* * * * * * * * * * * ",
"* * * * * * * * 0.7 7 7 7 7 7 7 7 7 7 7 7 7 7 7 a.* * * * b.  r * * * * * * c.f f f f f f f f f f f f f d.* * * * * * * * * * * ",
"* * * * * * * * e.7 7 7 7 7 7 7 7 7 7 7 7 7 7 7 f.* * * * g.@ r * * * * * * J f f f f f f f f f f f f f h.* * * * * * * * * * * ",
"* * * * * * * * e.7 7 i.j.7 7 7 7 7 7 7 7 k.7 7 f.* * * * '.+ r * * * * * * J f f f f f f f f f l.f f f h.* * * * * * * * * * * ",
"* * * * * * * * e.7 7 m.n.7 7 7 7 7 7 7 7 o.7 7 f.* * * * +.p.r * * * * * * J f f q.f f f f f f r.s.f f h.* * * * * * * * * * * ",
"* * * * * * * * e.7 7 m.n.7 7 7 7 7 7 7 7 o.7 7 f.* * * * t.q r * * * * * * J f f u.f f f f f f v.w.f f h.* * * * * * * * * * * ",
"* * * * * * * * e.7 7 m.n.7 7 7 7 7 7 7 7 o.7 7 f.* * * * x.N r * * * * * * J f f u.f f f f f f y.w.f f h.* * * * * * * * * * * ",
"* * * * * * * * e.7 7 m.n.7 7 7 7 7 7 7 7 o.7 7 f.* * * * p q r * * * * * * J f f u.f f f f f f z.w.f f h.* * * * * * * * * * * ",
"* * * * * * * * e.7 7 m.n.7 7 7 7 7 7 7 7 o.7 7 f.* * * * p q r * * * * * * J f f u.f f f f f f z.w.f f h.* * * * * * * * * * * ",
"* * * * * * * * e.7 7 m.n.7 7 7 7 7 7 7 7 o.7 7 f.* * * * x.N r * * * * * * J f f u.f f f f f f A.w.f f h.* * * * * * * * * * * ",
"* * * * * * * * e.7 7 m.n.7 7 7 7 7 7 7 7 o.7 7 f.* * * * t.q r * * * * * * B.f f C.f f f f f f D.w.f f E.* * * * * * * * * * * ",
"* * * * * * * * e.7 7 m.n.7 7 7 7 7 7 7 7 o.7 7 f.* * * * +.p.r * * * * * F.G.f A H.f f f f f f I.J.f f f K.* * * * * * * * * * ",
"* * * * * * * * e.7 7 m.n.7 7 7 7 7 7 7 7 o.7 7 f.* * * * '.+ r * * * * * L.f f M.J.f f f f f f N.<.G.f f O.* * * * * * * * * * ",
"* * * * * * * * e.7 7 m.n.7 7 7 7 7 7 7 7 o.7 7 f.* * * * g.@ r * * * * * h f f P.Q.f f f f f f f R.S.f f l.T.* * * * * * * * * ",
"* * * * * * * * e.7 7 m.n.7 7 7 7 7 7 7 7 o.7 7 f.* * * * b.  r * * * * U.f f V.W.f f f f f f f f X.Y.f f f Z.* * * * * * * * * ",
"* * * * * * * * e.7 7 m.n.7 7 7 7 7 7 7 7 o.7 7 f.* * * * (.. r * * * * `.f f  +.+f f f f f f f f g ++V.f f @+#+* * * * * * * * ",
"* * * * * * * * e.7 7 m.n.7 7 7 7 7 7 7 7 o.7 7 f.* * * * (   r * * * * $+f f z.%+f f f f f f f f f &+*+f f f d * * * * * * * * ",
"* * * * * * * * e.7 7 m.n.7 7 7 7 7 7 7 7 o.7 7 f.* * * * (.. r * * * * 4.f =+E f f f f f f f f f f -+;+f f f >+* * * * * * * * ",
"* * * * * * * * e.7 7 m.n.7 7 ,+'+7 7 7 7 o.7 7 f.* * * * '.+ r * * * * )+!+~+P f f f f f f f f f f f {+`.]+^+* * * * * * * * * ",
"* * * * * * * * /+7 7 (+n.7 7 _+* :+7 7 7 <+[+7 7.* * * * +.@ r * * * * * * * J f f f f f f f f f f f O.* * * * * * * * * * * * ",
"* * * * * * * * }+|+1+2+n.7 7 3+* 4+7 7 7 5+6+7+8+* * * * U , r * * * * * * 9+G.f f f f f f f f f f f N.1 * * * * * * * * * * * ",
"* * * * * * * * * * * * n.7 7 3+* 4+7 7 7 5+* * * * * * * M N r * * * * * * 0+f f f f f f f f f f f f f a+* * * * * * * * * * * ",
"* * * * * * * * * * * * n.7 7 3+* 4+7 7 7 5+* * * * * * * p q r * * * * * * h f f f f f f f f f f f f f s.* * * * * * * * * * * ",
"* * * * * * * * * * * * n.7 7 3+* 4+7 7 7 5+* * * * * * * y z r * * * * * b+f f f f f f f f f f f f f f f c+* * * * * * * * * * ",
"* * * * * * * * * * * * n.7 7 3+* 4+7 7 7 5+* * * * * * * y z r * * * * * d+f f f f f f f f f f f f f f f e+* * * * * * * * * * ",
"* * * * * * * * * * * * n.7 7 3+* 4+7 7 7 5+* * * * * * * p q r * * * * * f+f f f f f f f f f f f f f f f Q.g+* * * * * * * * * ",
"* * * * * * * * * * * * n.7 7 3+* 4+7 7 7 5+* * * * * * * M N r * * * * 5.h+f f f f f f f f f f f f f f f f {+* * * * * * * * * ",
"* * * * * * * * * * * * n.7 7 3+* 4+7 7 7 5+* * * * * * * U , r * * * * i+j+j+j+j+k+f f f l+m+f f n+j+j+j+j+o+* * * * * * * * * ",
"* * * * * * * * * * * * n.7 7 3+* 4+7 7 7 5+* * * * * * * +.@ r * * * * * * * * * p+f f f q+X f f r+* * * * * * * * * * * * * * ",
"* * * * * * * * * * * * n.7 7 3+* 4+7 7 7 5+* * * * * * * '.+ r * * * * * * * * * p+f f f q+X f f r+* * * * * * * * * * * * * * ",
"* * * * * * * * * * * * n.7 7 3+* 4+7 7 7 5+* * * * * * * (.. r * * * * * * * * * p+f f f q+X f f r+* * * * * * * * * * * * * * ",
"* * * * * * * * * * * * n.7 7 3+* 4+7 7 7 5+* * * * * * * (   r * * * * * * * * * p+f f f q+X f f r+* * * * * * * * * * * * * * ",
"* * * * * * * * * * * * n.7 7 3+* 4+7 7 7 5+* * * * * * * (.. r * * * * * * * * * p+f f f q+X f f r+* * * * * * * * * * * * * * ",
"* * * * * * * * * * * * n.7 7 3+* 4+7 7 7 5+* * * * * * * b.  r * * * * * * * * * p+f f f q+X f f r+* * * * * * * * * * * * * * ",
"* * * * * * * * * * * * n.7 7 3+* 4+7 7 7 5+* * * * * * * g.@ r * * * * * * * * * p+f f f q+X f f r+* * * * * * * * * * * * * * ",
"* * * * * * * * * * * * n.7 7 3+* 4+7 7 7 5+* * * * * * * '.+ r * * * * * * * * * p+f f f q+X f f r+* * * * * * * * * * * * * * ",
"* * * * * * * * * * * * n.7 7 3+* 4+7 7 7 5+* * * * * * * +.p.r * * * * * * * * * p+f f f q+X f f r+* * * * * * * * * * * * * * ",
"* * * * * * * * * * * * n.7 7 3+* 4+7 7 7 5+* * * * * * * t.q r * * * * * * * * * p+f f f q+X f f r+* * * * * * * * * * * * * * ",
"* * * * * * * * * * * * n.7 7 3+* 4+7 7 7 5+* * * * * * * x.N r * * * * * * * * * p+f f f q+X f f r+* * * * * * * * * * * * * * ",
"* * * * * * * * * * * * n.7 7 3+* 4+7 7 7 5+* * * * * * * p q r * * * * * * * * * p+f f f q+X f f r+* * * * * * * * * * * * * * ",
"= * * * * * * * * * * * S 7 7 s+* t+7 7 7 u+* * * * * * * p q r * * * * * * * * * p+f f f q+X f f r+* * * * * * * * * * * * * = ",
"- * * * * * * * * * * * v+7 7 w+* x+7 7 y+z+* * * * * * * x.N r * * * * * * * * * A+g f f B+X f f C+* * * * * * * * * * * * * D+",
"; * * * * * * * * * * * E+F+G+H+* =.I+J+K+* * * * * * * * L+M+=.* * * * * * * * * * N+f n+O+P+g m+Q+* * * * * * * * * * * * * 3 ",
"> ] * * * * * * * * * * * * * * * * * * * * * * * * * * * * * * * * * * * * * * * * * R+S+* * T+U+* * * * * * * * * * * * * V+# ",
", ^ * * * * * * * * * * * * * * * * * * * * * * * * * * * * * * * * * * * * * * * * * * * * * * * * * * * * * * * * * * * * W+@ ",
"@ / _ * * * * * * * * * * * * * * * * * * * * * * * * * * * * * * * * * * * * * * * * * * * * * * * * * * * * * * * * * * X+Y++ ",
"  . / Z+{ * * * * * * * * * * * * * * * * * * * * * * * * * * * * * * * * * * * * * * * * * * * * * * * * * * * * * * V+W+Y+) . ",
"'   @ , > 3 `+] * * * * * * * * * * * * * * * * * * * * * * * * * * * * * * * * * * * * * * * * * * * * * * * * ] D+3 # @ + .   "};
