/* XPM */
static char * player_xpm[] = {
"64 64 188 2",
"  	c #FFFFFF",
". 	c #F9F9F9",
"+ 	c #EEEEEE",
"@ 	c #F4F4F4",
"# 	c #D6D6D6",
"$ 	c #9D9D9D",
"% 	c #5D5D5D",
"& 	c #131313",
"* 	c #121212",
"= 	c #9C9C9C",
"- 	c #D3D3D3",
"; 	c #F5F5F5",
"> 	c #959595",
", 	c #080808",
"' 	c #000000",
") 	c #030303",
"! 	c #909090",
"~ 	c #F2F2F2",
"{ 	c #F8F8F8",
"] 	c #F6F6F6",
"^ 	c #EBEBEB",
"/ 	c #636363",
"( 	c #5E5E5E",
"_ 	c #EAEAEA",
": 	c #FCFCFC",
"< 	c #7A7A7A",
"[ 	c #727272",
"} 	c #FBFBFB",
"| 	c #C3C3C3",
"1 	c #BFBFBF",
"2 	c #626262",
"3 	c #585858",
"4 	c #DCDCDC",
"5 	c #D9D9D9",
"6 	c #C6C6C6",
"7 	c #C1C1C1",
"8 	c #C7C7C7",
"9 	c #C5C5C5",
"0 	c #CECECE",
"a 	c #E8E8E8",
"b 	c #050505",
"c 	c #E6E6E6",
"d 	c #EFEFEF",
"e 	c #737373",
"f 	c #6A6A6A",
"g 	c #C8C8C8",
"h 	c #010101",
"i 	c #C4C4C4",
"j 	c #FAFAFA",
"k 	c #8E8E8E",
"l 	c #F7F7F7",
"m 	c #E0E0E0",
"n 	c #DFDFDF",
"o 	c #CDCDCD",
"p 	c #D1D1D1",
"q 	c #E4E4E4",
"r 	c #F0F0F0",
"s 	c #838383",
"t 	c #7E7E7E",
"u 	c #CCCCCC",
"v 	c #B2B2B2",
"w 	c #9F9F9F",
"x 	c #808080",
"y 	c #606060",
"z 	c #3F3F3F",
"A 	c #020202",
"B 	c #4F4F4F",
"C 	c #A9A9A9",
"D 	c #AFAFAF",
"E 	c #343434",
"F 	c #2D2D2D",
"G 	c #AEAEAE",
"H 	c #EDEDED",
"I 	c #DBDBDB",
"J 	c #3E3E3E",
"K 	c #171717",
"L 	c #A6A6A6",
"M 	c #BABABA",
"N 	c #919191",
"O 	c #707070",
"P 	c #6F6F6F",
"Q 	c #B9B9B9",
"R 	c #E5E5E5",
"S 	c #555555",
"T 	c #666666",
"U 	c #DDDDDD",
"V 	c #E2E2E2",
"W 	c #434343",
"X 	c #DADADA",
"Y 	c #D5D5D5",
"Z 	c #404040",
"` 	c #CACACA",
" .	c #313131",
"..	c #111111",
"+.	c #F3F3F3",
"@.	c #B3B3B3",
"#.	c #DEDEDE",
"$.	c #ADADAD",
"%.	c #6C6C6C",
"&.	c #D4D4D4",
"*.	c #BBBBBB",
"=.	c #2C2C2C",
"-.	c #8A8A8A",
";.	c #0C0C0C",
">.	c #979797",
",.	c #ACACAC",
"'.	c #2E2E2E",
").	c #373737",
"!.	c #B6B6B6",
"~.	c #676767",
"{.	c #CBCBCB",
"].	c #B5B5B5",
"^.	c #060606",
"/.	c #E7E7E7",
"(.	c #949494",
"_.	c #7D7D7D",
":.	c #414141",
"<.	c #898989",
"[.	c #505050",
"}.	c #FEFEFE",
"|.	c #282828",
"1.	c #A4A4A4",
"2.	c #BCBCBC",
"3.	c #4A4A4A",
"4.	c #868686",
"5.	c #545454",
"6.	c #A1A1A1",
"7.	c #B0B0B0",
"8.	c #515151",
"9.	c #595959",
"0.	c #6B6B6B",
"a.	c #ECECEC",
"b.	c #A3A3A3",
"c.	c #040404",
"d.	c #E9E9E9",
"e.	c #1C1C1C",
"f.	c #A5A5A5",
"g.	c #757575",
"h.	c #D7D7D7",
"i.	c #B8B8B8",
"j.	c #1B1B1B",
"k.	c #646464",
"l.	c #242424",
"m.	c #7B7B7B",
"n.	c #090909",
"o.	c #A8A8A8",
"p.	c #858585",
"q.	c #565656",
"r.	c #4E4E4E",
"s.	c #9B9B9B",
"t.	c #393939",
"u.	c #E1E1E1",
"v.	c #2A2A2A",
"w.	c #ABABAB",
"x.	c #0B0B0B",
"y.	c #828282",
"z.	c #101010",
"A.	c #A7A7A7",
"B.	c #797979",
"C.	c #3D3D3D",
"D.	c #B4B4B4",
"E.	c #696969",
"F.	c #8C8C8C",
"G.	c #999999",
"H.	c #C2C2C2",
"I.	c #A2A2A2",
"J.	c #818181",
"K.	c #5B5B5B",
"L.	c #929292",
"M.	c #232323",
"N.	c #989898",
"O.	c #5C5C5C",
"P.	c #A0A0A0",
"Q.	c #C0C0C0",
"R.	c #575757",
"S.	c #848484",
"T.	c #FDFDFD",
"U.	c #686868",
"V.	c #CFCFCF",
"W.	c #1A1A1A",
"X.	c #F1F1F1",
"Y.	c #888888",
"Z.	c #8B8B8B",
"`.	c #D8D8D8",
" +	c #AAAAAA",
".+	c #4B4B4B",
"++	c #181818",
"@+	c #7F7F7F",
"    . + + .     + + @     @ + +     . + + .     + + @     @ + +     . + + .     # $ % & * % = -     . + + .     + + @     @ + + ",
"    . + + .     + + @     @ + +     . + + .     + + @     @ + +     . + + . ; > , ' ' ' ' ' ' ) ! ~ . + + .     + + @     @ + + ",
". . { @ @ { . . @ @ ] . . ] @ @ . . { @ @ { . . @ @ ] . . ] @ @ . . { @ @ ^ / ' ' ' ' ' ' ' ' ' ' ( _ @ @ { . . @ @ ] . . ] @ @ ",
"+ + @     @ + +     . + + .     + + @     @ + +     . + + .     + + @   : < ' ' ' ' ' ' ' ' ' ' ' ' [ }   @ + +     . + + .     ",
"+ + @     @ + +     . + + .     + + @     @ + +     . + + .     + + @   | ' ' ' ' ' ' ' ' ' ' ' ' ' ' 1   @ + +     . + + .     ",
". . { @ @ { . . @ @ ] . . ] @ @ . . { @ @ { . . @ @ ] . . ] @ @ . . { @ 2 ' ' ' ' ' ' ' ' ' ' ' ' ' ' 3 @ { . . @ @ ] . . ] @ @ ",
"    . + + .     + + @     @ + +     . + + .     + + @     @ + +     . 4 ' ' ' ' ' ' ' ' ' ' ' ' ' ' ' ' 5 .     + + @     @ + + ",
"    . + + .     + + @     @ + +     . + + .     + + @     @ + +     . 6 ' ' ' ' ' ' ' ' ' ' ' ' ' ' ' ' 7 .     + + @     @ + + ",
"+ + @     @ + +     . + + .     + + @     @ + +     . + + .     + + @ 8 ' ' ' ' ' ' ' ' ' ' ' ' ' ' ' ' 9 @ + +     . + + .     ",
"+ + @     @ + +     . + + .     + + @     @ + +     . + + .     + + @ - ' ' ' ' ' ' ' ' ' ' ' ' ' ' ' ' 0 @ + +     . + + .     ",
"@ @ ] . . ] @ @ . . { @ @ { . . @ @ ] . . ] @ @ . . { @ @ { . . @ @ ] a b ' ' ' ' ' ' ' ' ' ' ' ' ' ' ' c ] @ @ . . { @ @ { . . ",
"    . + + .     + + @     @ + +     . + + .     + + @     @ + +     . d e ' ' ' ' ' ' ' ' ' ' ' ' ' ' f d .     + + @     @ + + ",
"    . + + .     + + @     @ + +     . + + .     + + @     @ + +     . + g h ' ' ' ' ' ' ' ' ' ' ' ' ' i + .     + + @     @ + + ",
"@ @ ] . . ] @ @ . . { @ @ { . . @ @ ] . . ] @ @ . . { @ @ { . . @ @ ] . j > ' ' ' ' ' ' ' ' ' ' ' ' k j . ] @ @ . . { @ @ { . . ",
"+ + @     @ + +     . + + .     + + @     @ + d     l _ m n # o | p q :   r s ' ' ' ' ' ' ' ' ' ' t r     @ + +     . + + .     ",
"+ + @     @ + +     . + + .     + + @ @ u v w ! x y z A ' ' ' ' ' ' ' B C m + D E ' ' ' ' ' ' F G H @     @ + +     . + + .     ",
"    . + + .     + + @     @ + +     I J ' ' ' ' ' ' ' ' ' ' ' ' ' ' ' ' ' K L { c M N O P ! Q R     . + + .     + + @     @ + + ",
"    . + + .     + + @     @ + +   : S ' ' ' ' ' ' ' ' ' ' ' ' ' ' ' ' ' ' ' ' T U + @     @ + +     . + + .     + + @     @ + + ",
". . { @ @ { . . @ @ ] . . ] @ @ . V ' ' ' ' ' ' ' ' ' ' ' ' ' ' ' ' ' ' ' ' ' ' W X ] . . ] @ @ . . { @ @ { . . @ @ ] . . ] @ @ ",
"+ + @     @ + +     . + + .     + Y ' ' ' ' ' ' ' ' ' ' ' ' ' ' ' ' ' ' ' ' ' ' ' Z X + + .     + + @     @ + +     . + + .     ",
"+ + @     @ + +     . + + .     + ` ' ' ' ' ' ' ' ' ' ' ' ' ' ' ' ' ' ' ' ' ' ' ' '  .o d .     + + @     @ + +     . + + .     ",
". . { @ @ { . . @ @ ] . . ] @ @ . ` ' ' ' ' ' ' ' ' ' ' ' ' ' ' ' ' ' ' ' ' ' ' ' ' ' ..D +.@ @ . . { @ @ { . . @ @ ] . . ] @ @ ",
"    . + + .     + + @     @ + +   ` ' ' ' ' ' h @.p #.$.' ' ' ' ' ' ' ' ' ' ' ' ' ' ' ' ' %.&.d     . + + .     + + @     @ + + ",
"    . + + .     + + @     @ + +   *.' ' ' ' ' =.H + @ -.' ' ' ' ' ' ' ' ' ' ' ' ' ' ' ' ' ' ;.>.r   . + + .     + + @     @ + + ",
"+ + @     @ + +     . + + .     + ,.' ' ' ' ' <     { '.' ' ' ' ' ' ' ' ' ' ' ' ' ' ' ' ' ' ' ' ).!.~     @ + +     . + + .     ",
"+ + @     @ + +     . + + .     + L ' ' ' ' ' C     U ' ' ' ' ' ' ' ' ' ' ' ' ' ' ' ' ' ' ' ' ' ' ' ~.X   @ + +     . + + .     ",
"@ @ ] . . ] @ @ . . { @ @ { . . @ w ' ' ' ' ' {.. . ].' ' ' ' ' ' ' ' ' ' ' ' ' ' ' ' ' ' ' ' ' ' ' ' ^.> /.@ @ . . { @ @ { . . ",
"    . + + .     + + @     @ + +   (.' ' ' ' b + + d _.' ' ' ' ' ' ' ' ' ' ' ' ' ' ' ' ' ' ' ' ' ' ' ' ' ' :./.  + + @     @ + + ",
"    . + + .     + + @     @ + +   <.' ' ' ' [.}.+ _ |.' ' ' ' ' ' ' ' ' ' ' ' ' ' ' 1.2.3.' ' ' ' ' ' ' ' ' >   + + @     @ + + ",
"@ @ ] . . ] @ @ . . { @ @ { . . @ 4.' ' ' ' ! @ . Y ' ' ' ' ' ' ' ' ' ' ' ' ' ' ' ' I @ + 2.5.' ' ' ' ' ' ' O ; . . { @ @ { . . ",
"+ + @     @ + +     . + + .     + 6.' ' ' ' 2.+   7.' ' ' ' ' ' ' ' ' ' ' ' ' ' ' 8.l + + . . 9 9.' ' ' ' ' L +     . + + .     ",
"+ + @     @ + +     . + + .     + c 0.' A 4.a.+   [ ' ' ' ' ' ' ' ' ' ' ' ' ' ' ' b.. + + .     + | / h c.x d.+     . + + .     ",
"    . + + .     + + @     @ + +     { Y 5 j     a e.' ' ' ' ' ' ' ' ' ' ' ' ' ' ' p @     @ + +     . I 4 j     + + @     @ + + ",
"    . + + .     + + @     @ + +     . + + .     ` ' ' ' ' ' ' ' ' ' ' ' ' ' ' ' B + @     @ + +     . + + .     + + @     @ + + ",
". . { @ @ { . . @ @ ] . . ] @ @ . . { @ @ { . . f.' ' ' ' ' ' ' ' ' ' ' ' ' ' ' C @ ] . . ] @ @ . . { @ @ { . . @ @ ] . . ] @ @ ",
"+ + @     @ + +     . + + .     + + @     @ + d %.' ' ' ' ' ' ' ' ' ' ' ' ' ' ' Y   . + + .     + + @     @ + +     . + + .     ",
"+ + @     @ + +     . + + .     + + @     @ + d.K ' ' ' ' ' ' ' ' ' ' ' ' ' ' ' g.} . + + .     + + @     @ + +     . + + .     ",
". . { @ @ { . . @ @ ] . . ] @ @ . . { @ @ { . h.' ' ' ' ' ' ' ' ' ' ' ' ' ' ' ' ' D ] . . ] @ @ . . { @ @ { . . @ @ ] . . ] @ @ ",
"    . + + .     + + @     @ + +     . + + .   i.' ' ' ' ' ' ' ' ' ' ' ' ' ' ' ' ' j.I     @ + +     . + + .     + + @     @ + + ",
"    . + + .     + + @     @ + +     . + + .   -.' ' ' ' ' ' ' ' ' ' ' ' ' ' ' ' ' ' 2 l   @ + +     . + + .     + + @     @ + + ",
"+ + @     @ + +     . + + .     + + @     @ + W ' ' ' ' ' ' ' ' k.' ' ' ' ' ' ' ' ' ' = d .     + + @     @ + +     . + + .     ",
"+ + @     @ + +     . + + .     + + @     @ U ' ' ' ' ' ' ' ' l./.m.' ' ' ' ' ' ' ' ' n.u .     + + @     @ + +     . + + .     ",
"@ @ ] . . ] @ @ . . { @ @ { . . @ @ ] . j r o.' ' ' ' ' ' ' ' p.; ^ q.' ' ' ' ' ' ' ' ' r.d . . @ @ ] . . ] @ @ . . { @ @ { . . ",
"    . + + .     + + @     @ + +     . &.s.t.' ' ' ' ' ' ' ' ' Q     u.v.' ' ' ' ' ' ' ' ' w.+ +     . + + .     + + @     @ + + ",
"    . + + .     + + @     @ + d d Q / ' ' ' ' ' ' ' ' ' ' ' x.m     j 7 ) ' ' ' ' ' ' ' ' < d +     . + + .     + + @     @ + + ",
"@ @ ] . . ] @ @ . . { @ @ ~ 8 y.z.' ' ' ' ' ' ' ' ' ' ' ' ' 0.j @ @ ] j A.' ' ' ' ' ' ' ' B.j . @ @ ] . . ] @ @ . . { @ @ { . . ",
"+ + @     @ + +     j h.w C.' ' ' ' ' ' ' ' ' ' ' ' ' ' ' ' D.  + + @   : E.' ' ' ' ' ' ' F.    + + @     @ + +     . + + .     ",
"+ + @     @ + +   }.L A ' ' ' ' ' ' ' ' ' ' ' ' ' ' ' ' ' ) q   + + @     4.' ' ' ' ' ' ' G.    + + @     @ + +     . + + .     ",
"    . + + .     + H.' ' ' ' ' ' ' ' ' ' ' ' ' ' ' ' ' ' ' I.d +     . + d F.' ' ' ' ' ' ' s.+ +     . + + .     + + @     @ + + ",
"    . + + .     d J.' ' ' ' ' ' ' ' ' ' ' ' ' ' ' ' c.K.7 +.+ +     . + + L.' ' ' ' ' ' ' o.+ +     . + + .     + + @     @ + + ",
". . { @ @ { . . ; [ ' ' ' ' ' ' ' ' ' ' ' ' ' M.p.2.V { . ] @ @ . . { @ @ N.' ' ' ' ' ' ' ].@ @ . . { @ @ { . . @ @ ] . . ] @ @ ",
"+ + @     @ + +   C ' ' ' ' ' ' ' ' ' ' O.P.{._     . + + .     + + @     $ ' ' ' ' ' ' ' Q.    + + @     @ + +     . + + .     ",
"+ + @     @ + +   ~ R.' ' ' ' ' |.S.*._ T.@ + +     . + + .     + + @     w ' ' ' ' ' ' ' u     + + @     @ + +     . + + .     ",
". . { @ @ { . . @ @ a I.U.P 1.0 ] j { @ @ { . . @ @ ] . . ] @ @ . . { @ @ w ' ' ' ' ' ' ' o @ @ . . { @ @ { . . @ @ ] . . ] @ @ ",
"    . + + .     + + @     ; + +     . + + .     + + @     @ + +     . + + b.' ' ' ' ' ' ' V.+ +     . + + .     + + @     @ + + ",
"    . + + .     + + @     @ + +     . + + .     + + @     @ + +     . + + C ' ' ' ' ' ' ' h.+ +     . + + .     + + @     @ + + ",
"+ + @     @ + +     . + + .     + + @     @ + +     . + + .     + + @     v ' ' ' ' ' ' ' _     + + @     @ + +     . + + .     ",
"+ + @     @ + +     . + + .     + + @     @ + +     . + + .     + + @     M ' ' ' ' ' ' ^.+     + + @     @ + +     . + + .     ",
"@ @ ] . . ] @ @ . . { @ @ { . . @ @ ] . . ] @ @ . . { @ @ { . . @ @ ] . . M ' ' ' ' ' ' W.X.. . @ @ ] . . ] @ @ . . { @ @ { . . ",
"    . + + .     + + @     @ + +     . + + .     + + @     @ + +     . + + i.' ' ' ' ' ' v.+.+ +     . + + .     + + @     @ + + ",
"    . + + .     + + @     @ + +     . + + .     + + @     @ + +     . + + *.' ' ' ' ' ' :.@ + +     . + + .     + + @     @ + + ",
"@ @ ] . . ] @ @ . . { @ @ { . . @ @ ] . . ] @ @ . . { @ @ { . . @ @ ] . . X ) ' ' ' ' ' Y.{ . . @ @ ] . . ] @ @ . . { @ @ { . . ",
"+ + @     @ + +     . + + .     + + @     @ + +     . + + .     + + @     ; Z.' ' ' ' =.`..     + + @     @ + +     . + + .     ",
"+ + @     @ + +     . + + .     + + @     @ + +     . + + .     + + @     @ a. +.+++@+# + .     + + @     @ + +     . + + .     "};
