/* XPM */
static char * collectible_xpm[] = {
"32 32 3 1",
" 	c #FFFFFF",
".	c #14D35B",
"+	c #FF0000",
"                    ....        ",
"        ..... ..  ...           ",
"          ...........           ",
"            ........            ",
"       ++++  ....++++++         ",
"     ++++++++...++++++++        ",
"    +++++++++ ..+++++++++       ",
"   +++++++++++..+++++++++       ",
"  ++++++++++++++++++++++++      ",
"  ++++++++++++++++++++++++      ",
" ++++++++++++++++++++++++++     ",
" ++++++++++++++++++++++++++     ",
" ++++++++++++++++++++++++++     ",
" +++++++++++++++++++++++++++    ",
" +++++++++++++++++++++++++++    ",
" +++++++++++++++++++++++++++    ",
" +++++++++++++++++++++++++++    ",
" +++++++++++++++++++++++++++    ",
" +++++++++++++++++++++++++++    ",
" +++++++++++++++++++++++++++    ",
"  ++++++++++++++++++++++++++    ",
"  ++++++++++++++++++++++++++    ",
"   +++++++++++++++++++++++++    ",
"   ++++++++++++++++++++++++     ",
"    +++++++++++++++++++++++     ",
"    ++++++++++++++++++++++      ",
"     +++++++++++++++++++++      ",
"     ++++++++++++++++++++       ",
"      +++++++++++++++++++       ",
"       +++++++++++++++++        ",
"        +++ ++++  +++++         ",
"         ++  +++   +++          "};
