/* XPM */
static char * exit_xpm[] = {
"32 32 3 1",
" 	c #995B08",
".	c #08D007",
"+	c #000000",
"                                ",
"                                ",
"                      ...       ",
"                  ....  .       ",
"              ....      .       ",
"           ....         .       ",
"         ..             .       ",
"      ...               .       ",
"      ..                .       ",
"       .                .       ",
"       .             +++..      ",
"       .             +++ .      ",
"       .             ++  .      ",
"       .                 .      ",
"       .                 .      ",
"       .                 .      ",
"        .                .      ",
"        .                .      ",
"        .                .      ",
"        .                .      ",
"        .                .      ",
"       ..               ..      ",
"       .              ....      ",
"       .           ...          ",
"       .         ..             ",
"       .        .               ",
"       .      ..                ",
"       .    ..                  ",
"       .  ..                    ",
"       ...                      ",
"       ..                       ",
"                                "};
