/* XPM */
static char * floor_xpm[] = {
"32 32 474 2",
"  	c #94A07E",
". 	c #929E7C",
"+ 	c #9CA886",
"@ 	c #8F9F79",
"# 	c #95A17D",
"$ 	c #98A07E",
"% 	c #8F9A76",
"& 	c #939F7B",
"* 	c #949E7B",
"= 	c #8F9976",
"- 	c #9AA380",
"; 	c #97A17E",
"> 	c #8A9471",
", 	c #909A76",
"' 	c #929D7C",
") 	c #939F7D",
"! 	c #929D7B",
"~ 	c #94A07C",
"{ 	c #96A07D",
"] 	c #959F7C",
"^ 	c #959E7B",
"/ 	c #8F9D7A",
"( 	c #919F7C",
"_ 	c #9AA885",
": 	c #929A75",
"< 	c #98A07B",
"[ 	c #929B77",
"} 	c #98A27F",
"| 	c #8E9874",
"1 	c #979F7E",
"2 	c #9EA585",
"3 	c #939F7C",
"4 	c #98A381",
"5 	c #9EAA88",
"6 	c #91A07B",
"7 	c #99A27F",
"8 	c #8D9975",
"9 	c #8F9B77",
"0 	c #9AA581",
"a 	c #919B78",
"b 	c #A1AB88",
"c 	c #909A77",
"d 	c #9AA584",
"e 	c #939E7C",
"f 	c #96A27E",
"g 	c #9BA581",
"h 	c #8F9C7A",
"i 	c #909D7B",
"j 	c #9DAA87",
"k 	c #939B76",
"l 	c #979F7A",
"m 	c #919A76",
"n 	c #949E7A",
"o 	c #8E9875",
"p 	c #99A180",
"q 	c #9DA584",
"r 	c #9DA784",
"s 	c #A1AB89",
"t 	c #909C7B",
"u 	c #949F7C",
"v 	c #97A17D",
"w 	c #929D79",
"x 	c #99A480",
"y 	c #99A280",
"z 	c #969F7D",
"A 	c #9FA784",
"B 	c #8E9673",
"C 	c #94A07D",
"D 	c #8E9A77",
"E 	c #95A17E",
"F 	c #9BA783",
"G 	c #929C79",
"H 	c #909D7A",
"I 	c #97A381",
"J 	c #929F7C",
"K 	c #949E79",
"L 	c #98A17C",
"M 	c #98A17E",
"N 	c #99A07E",
"O 	c #999F7E",
"P 	c #969F7C",
"Q 	c #A0AA87",
"R 	c #929B7D",
"S 	c #929D77",
"T 	c #8F9975",
"U 	c #939D7B",
"V 	c #8B9573",
"W 	c #959E7D",
"X 	c #979E7C",
"Y 	c #8B9270",
"Z 	c #8D9572",
"` 	c #909C78",
" .	c #919D79",
"..	c #8E9A76",
"+.	c #99A380",
"@.	c #929B78",
"#.	c #8F9A78",
"$.	c #9BA785",
"%.	c #939D77",
"&.	c #96A07B",
"*.	c #9BA380",
"=.	c #929A77",
"-.	c #9FA583",
";.	c #A0A583",
">.	c #A4AE8B",
",.	c #959F7A",
"'.	c #939C79",
").	c #959F7D",
"!.	c #949D7C",
"~.	c #9BA483",
"{.	c #9CA481",
"].	c #909875",
"^.	c #97A27E",
"/.	c #96A17D",
"(.	c #96A07C",
"_.	c #919C7A",
":.	c #949F7E",
"<.	c #9BA684",
"[.	c #939D78",
"}.	c #939C78",
"|.	c #9BA280",
"1.	c #959D7A",
"2.	c #989E7C",
"3.	c #9DA280",
"4.	c #A3AB88",
"5.	c #9DA482",
"6.	c #A5AC8A",
"7.	c #9BA484",
"8.	c #9CA780",
"9.	c #99A581",
"0.	c #9EAA86",
"a.	c #919C79",
"b.	c #A8B28F",
"c.	c #919A77",
"d.	c #98A27E",
"e.	c #9DA984",
"f.	c #9CA683",
"g.	c #99A17E",
"h.	c #989F7D",
"i.	c #9CA381",
"j.	c #969E7B",
"k.	c #99A17F",
"l.	c #A5AD8A",
"m.	c #929B7B",
"n.	c #959F7B",
"o.	c #959F78",
"p.	c #8B9471",
"q.	c #949F7B",
"r.	c #9AA481",
"s.	c #939D79",
"t.	c #949D7A",
"u.	c #939B78",
"v.	c #929977",
"w.	c #9EA683",
"x.	c #979F7C",
"y.	c #A2AA87",
"z.	c #8F9879",
"A.	c #929D76",
"B.	c #8D9773",
"C.	c #8A9370",
"D.	c #8E9774",
"E.	c #919B77",
"F.	c #939D7A",
"G.	c #8D9673",
"H.	c #919976",
"I.	c #959C7A",
"J.	c #949B79",
"K.	c #959D7B",
"L.	c #9EA985",
"M.	c #A2AC89",
"N.	c #99A37F",
"O.	c #9CA682",
"P.	c #9FA986",
"Q.	c #949C79",
"R.	c #A2A987",
"S.	c #949C7A",
"T.	c #9DA582",
"U.	c #929C78",
"V.	c #9CA47F",
"W.	c #A2AA85",
"X.	c #98A17D",
"Y.	c #9EA784",
"Z.	c #A0A684",
"`.	c #9FA482",
" +	c #9CA582",
".+	c #969D7B",
"++	c #A1A886",
"@+	c #9FA684",
"#+	c #939A78",
"$+	c #A5AF8B",
"%+	c #969E79",
"&+	c #9CA37F",
"*+	c #9BA37F",
"=+	c #A0A785",
"-+	c #A3A886",
";+	c #9BA481",
">+	c #9DA683",
",+	c #8F9875",
"'+	c #97A07D",
")+	c #969F7A",
"!+	c #9FA781",
"~+	c #959D79",
"{+	c #9EA582",
"]+	c #999F7D",
"^+	c #A0A886",
"/+	c #939B79",
"(+	c #9CA380",
"_+	c #909976",
":+	c #8D9774",
"<+	c #98A27D",
"[+	c #929C77",
"}+	c #959F79",
"|+	c #98A37F",
"1+	c #99A57F",
"2+	c #9EA77E",
"3+	c #969C79",
"4+	c #A3AA88",
"5+	c #98A07D",
"6+	c #9EA583",
"7+	c #919977",
"8+	c #99A07C",
"9+	c #9AA07C",
"0+	c #A1A783",
"a+	c #A2AE8A",
"b+	c #97A37D",
"c+	c #9CA57D",
"d+	c #A0A783",
"e+	c #9AA37E",
"f+	c #9AA27D",
"g+	c #A1A887",
"h+	c #979F7D",
"i+	c #A1A986",
"j+	c #969E7C",
"k+	c #9DA583",
"l+	c #989E7B",
"m+	c #939E7A",
"n+	c #9DA681",
"o+	c #A3AC86",
"p+	c #99A07D",
"q+	c #A7AF8C",
"r+	c #A2AB85",
"s+	c #99A17B",
"t+	c #A4AC8B",
"u+	c #9AA27F",
"v+	c #A3AB89",
"w+	c #A3AD89",
"x+	c #9DA783",
"y+	c #A1A685",
"z+	c #98A380",
"A+	c #9DA580",
"B+	c #A2AA86",
"C+	c #969E7A",
"D+	c #98A07A",
"E+	c #A3AB86",
"F+	c #AAB190",
"G+	c #9AA17F",
"H+	c #A0A885",
"I+	c #9CA17F",
"J+	c #A3AC89",
"K+	c #9EA681",
"L+	c #9BA37E",
"M+	c #919D7A",
"N+	c #959E78",
"O+	c #959B75",
"P+	c #929A76",
"Q+	c #909775",
"R+	c #8C9673",
"S+	c #9BA47D",
"T+	c #A2AA83",
"U+	c #A7AE8C",
"V+	c #A2A786",
"W+	c #97A380",
"X+	c #99A37D",
"Y+	c #9DA37E",
"Z+	c #9DA581",
"`+	c #A0A883",
" @	c #979E7B",
".@	c #9EA885",
"+@	c #9EA67F",
"@@	c #A3AB85",
"#@	c #9AA17D",
"$@	c #A8B08D",
"%@	c #AFB694",
"&@	c #9DA986",
"*@	c #A2AC86",
"=@	c #9DA47E",
"-@	c #A5AD88",
";@	c #A8AF8D",
">@	c #A2AB88",
",@	c #ABB390",
"'@	c #A6AE8B",
")@	c #A5AE87",
"!@	c #A4AC87",
"~@	c #A1A684",
"{@	c #97A37F",
"]@	c #9CA280",
"^@	c #A0A986",
"/@	c #989F7C",
"(@	c #A2AA84",
"_@	c #A1AA83",
":@	c #A7AF88",
"<@	c #9CA47E",
"[@	c #99A17C",
"}@	c #A3A887",
"|@	c #9AA07E",
"1@	c #8F9675",
"2@	c #9EA680",
"3@	c #99A27B",
"4@	c #9FA780",
"5@	c #969E78",
"6@	c #989F7B",
"7@	c #919974",
"8@	c #A4AC88",
"9@	c #ACB390",
"0@	c #9EA886",
"a@	c #9DA682",
"b@	c #A1AA85",
"c@	c #A4AC89",
"d@	c #A2AB84",
"e@	c #A0A982",
"f@	c #A0A882",
"g@	c #9FA681",
"h@	c #949C77",
"i@	c #A6AD8A",
"j@	c #A3A785",
"k@	c #A5AD89",
"l@	c #A7AF8A",
"m@	c #9EA586",
"n@	c #A0A884",
"o@	c #A4AB88",
"p@	c #A7AC8A",
"q@	c #A5AB89",
"r@	c #9CA783",
"s@	c #ADB58E",
"t@	c #A4AA86",
"u@	c #A5AB87",
"v@	c #AFB391",
"w@	c #AAAD8C",
"x@	c #A1A884",
"y@	c #A6AE8A",
"z@	c #9FA687",
"A@	c #9DA57F",
"B@	c #A0A584",
"C@	c #9DA67F",
"D@	c #9BA27D",
"E@	c #9EA480",
"F@	c #989D79",
"G@	c #A4A887",
"H@	c #A3A786",
"I@	c #9DA481",
"J@	c #A8AE8B",
"K@	c #AFB593",
"L@	c #979F79",
"M@	c #9FA783",
"N@	c #A1A985",
"O@	c #979F7B",
"P@	c #A1A480",
"Q@	c #9A9E7A",
"R@	c #A2AA89",
"S@	c #9FA782",
"T@	c #9BA27E",
"U@	c #939976",
"V@	c #A8AC8B",
"W@	c #A4A787",
"X@	c #A4AA88",
"Y@	c #A2A886",
"Z@	c #A1A889",
"`@	c #9FA881",
" #	c #AAB28F",
".#	c #A6AD88",
"+#	c #A9B18B",
"@#	c #9CA784",
"##	c #A3AD8A",
"$#	c #A1A984",
"%#	c #ACB48F",
"&#	c #A1A885",
"*#	c #A6AB89",
"=#	c #A3A987",
"-#	c #ABAF8B",
";#	c #AAAE89",
">#	c #9FA683",
",#	c #A4A987",
"'#	c #AFB492",
")#	c #98A17A",
"!#	c #A3AA87",
"~#	c #9AA280",
"{#	c #A6AA86",
"]#	c #9EA27E",
"^#	c #9FA685",
"/#	c #9FA682",
"(#	c #9BA07E",
"_#	c #AEB291",
":#	c #A6AA89",
"<#	c #A6AC8B",
"[#	c #A9AF8F",
"}#	c #B5BA9A",
"|#	c #A5AC8B",
"1#	c #9FA882",
"2#	c #9CA47D",
"3#	c #A6AE89",
"4#	c #AAB28D",
"5#	c #A3AB84",
"6#	c #A2AA88",
"7#	c #A4AC85",
"8#	c #A7AC87",
"9#	c #9CA17D",
"0#	c #A3AD86",
"a#	c #9FA885",
"b#	c #9EA57F",
"c#	c #A2A884",
"d#	c #9A9F7C",
"e#	c #ACAE8D",
"f#	c #A9AA8A",
"g#	c #A0A887",
"h#	c #A6AF8E",
"i#	c #9FA786",
"j#	c #A3AB8A",
"k#	c #A8B08B",
"l#	c #ABB38C",
"m#	c #ABB293",
"n#	c #ADB58F",
"o#	c #9CA984",
"p#	c #A4AD8A",
"q#	c #A1A983",
"r#	c #A3A985",
"s#	c #ADAF8E",
"t#	c #ACAD8D",
"u#	c #99A381",
"v#	c #A0AB89",
"w#	c #AAB593",
"x#	c #9BA37D",
"y#	c #989F80",
"z#	c #9EA780",
"A#	c #A5A984",
"B#	c #989D77",
"C#	c #9BA582",
"D#	c #A5AD87",
"E#	c #A0A681",
"F#	c #9EA37F",
"G#	c #AAAC8B",
"H#	c #ADAE8D",
"I#	c #A9B18E",
"J#	c #ACB491",
"K#	c #ABB08C",
"L#	c #9BA281",
"M#	c #9EA47F",
"N#	c #A4A985",
"O#	c #A6AC88",
"P#	c #A0A682",
"Q#	c #A0A581",
"R#	c #A0A480",
"S#	c #ABAD8A",
"T#	c #B1B996",
"U#	c #A4AB89",
"V#	c #ABB290",
"W#	c #A5AC88",
"X#	c #ADB38F",
"Y#	c #BABF9E",
"Z#	c #ACB18F",
"`#	c #B2BA97",
" $	c #AAB18F",
".$	c #979E7D",
"+$	c #AFB791",
"@$	c #AFBA97",
"#$	c #A2AD89",
"$$	c #A6AF8C",
"%$	c #A7B18D",
"&$	c #A7B08D",
"*$	c #A7AD89",
"=$	c #A5AA87",
"-$	c #A2A584",
";$	c #A4A886",
">$	c #A8A988",
",$	c #A6A785",
"  . + @ # $ % & * = - ; > , ' ) ! & ~ { ] ^ / ( _ : < [ } | 1 2 ",
"3 4 5 6 ~ 7 8 9 0 a b } c c 4 d e f & ; g ; h i j k l m n o p q ",
"r { s t u v w x a y z A B ^ C D E 9 F ] n G H I J K L [ - M N O ",
"% P Q R a S | T U V W X Y Z `  ... .` * +.@.#.#.$.%.&.[ *.=.-.;.",
"v g >.R * ,.@.'.).!.~.{.].].^.~ ~ w /.{ - (._.:.<.[.,.}.|.1.2.3.",
"4.5.6.7.g 8.9.0.a.Q - b.c.d.e.~ 9.; Q f.g ; * r c.g.A h.g.i.j.N ",
"k.*.l.m.n.o. ...{ G +.g o p.~ & q.P ^ ] r.{ s.t.Q u.1.1.i.v.j.w.",
"1.x.y.z.T A. . .G a P P B.C.& 8 q.D.* E.F.F.G.^ M H.I.J.x.K.5.X ",
"L.d.M.N.N.+.O.P.Q.5.N R.X x.+.G - S.T.w.h.k.U.O.7 V.W.X.; Y.Z.`.",
"r.Y.Q n ; ; { M  +.+++@+j.#+r ; M *.{.|.N y.n } $+%+&+*+Q ] =+-+",
"M ;+>+,+P '.s.7 K.X |.|.I.H.; = '+S.g.1.1.{.= G N.)+!+~+'+s.{+]+",
"A 1.^+h.N /+*.y.=.A .+(+S.u.+._+; :+r <+[+}+9 |+9 1+2+3+u.Q.*.g.",
"Q.4+4+X {.5+u.w.g.1.=+6+g.7+>+{ ;++.M 8+9+0+f # a+b+c+d+6+5+5.=+",
"e+f+g+h+N N $ i+Q.Y. +A j+u.{.@.P @.k+3.l+- m+|+|+n+o+p+x.g.q+=+",
"r+s+t+x.{.u+*.v+t.w+x+4.X h.A |.k.=.y.y+I.z+U.r P A+B+C+N 1.i+{.",
"D+E+F+|.i.G+G+=+*.- Q H+N h.{.G+w.i.T.I+]+L.>+N.J+K+L+B+{+.+T.i.",
"x.u+y.M+N+O+L+V.P+{.$ {.=.Q+x.=.@.R+Q 5+j+.+Q.*.j.S+T+< u+G+U+V+",
"T.*.y.W+X+Y+Z+`+ @y.@+@+N =.*.x.j+c..@T.x.x.g.{.(++@@@#@G+.+R.-+",
"*.$@%@&@*@=@W.-@H+T.$@4.$ G+;@w.y.b Q >@H+,@6+A '@)@+@!@i+=.q+~@",
"T.w.;@{@;+]@w.i+'+^@r =+u+X 5.i./@K.(@++i.g.1.w.i._@:@<@[@L+$@}@",
"T.j.v+# ^ |@N 6+@.>+7 |.h.1.I.j.C+1@2@{.k.u.B |.x.3@4@5@6@7@*.;.",
"T.8@9@0@a@p+A A *.;+b@i+j.1.c@N {.6+K+-.{+J+J.5.6+d@e@f@g@h@i@j@",
"k@`+l@m@n@@@w.q+k+A )@o@w.5.w.4.h.1.$@p@q@r@N l.i+:@s@=@t@u@v@w@",
"x@`+y@z@*.A@=+=+h+5.e@w.{.5.N A h.j.++B@{+x h+5.|.C@T+D@E@F@G@H@",
"I@J@K@m@Z+L@M@N@O@B+W.y.5+j.y.|.5.i+=+P@Q@R@P  +'+r+S@T@;.U@V@W@",
"X@Y@q@Z@A `@E+!@`+V.8@R.5.4+|.y.w.=. #.#+#@# +##P.$#%#&#*#=#-#;#",
">#,#'#Z@T.)#M@W.f+$#E+!#(+T.6+~#i+A A {#]#^#Y.x+M 8@8@/#Y@(#_#:#",
"<#[#}#|#1#2#S@3#V.$#4#5#A z@A 6#U+6#7#8#9#0#a#P.'+)@_@b#c#d#e#f#",
"g#h#i#j#o+:@!@E+E+K+k#l#I@m#6#'@6.1.n#k@$@o#P.b p#_@)@q#r#u@s#t#",
"u#v#w#g+L+<@M@k@*+f+$#x#g.y#h.*.^+$ z#A#B#2#r ;+C#D#(@Y+E#F#G#H#",
"l.I#J#l.H+H+y.U+d+c#K#;.-.Y@*.i+l.L#-@u@M#N#J+^@b O#P#Q#P@R#e#S#",
"4+T#U#q+J#J#I#V#W#X#X#Y#2.Z#`# $I#.$+$>.@$#$$$%$&$*$d#=$-$;$>$,$"};
