/* XPM */
static char * player_xpm[] = {
"32 32 4 1",
" 	c None",
".	c #8311C1",
"+	c #C11111",
"@	c #811BB1",
"                                ",
"              .......           ",
"            ...........         ",
"           .............        ",
"          ....++...++....       ",
"         .....++...++....       ",
"         .....++...++....       ",
"         .................      ",
"         ........+........      ",
"         ..+..............      ",
"         ..+..........+...      ",
"         ..++........++..       ",
"         ...++++++++++...       ",
"          ..............        ",
"           ...........          ",
"   @@       ........       ..   ",
"   @@           @@         @.   ",
"   @@           @@         @.   ",
"   @@           @@         @.   ",
"   @@@@         @@       ..@    ",
"    @@@@@@@@@@@@@@.......@@@    ",
"     @@@@@@@@@@@@@@@@@@@@@      ",
"                @@              ",
"                @@              ",
"                @@              ",
"         @@@....@@...@@@        ",
"        @@@..............       ",
"      @@@@             ...      ",
"      @@@               ...     ",
"     @@@                 ...    ",
"    @@@                   ...   ",
"   @@@@                    ..   "};
